<svg xmlns="http://www.w3.org/2000/svg" width="32" height="32" viewBox="0 0 32 32">
  <rect width="32" height="32" fill="#000000" rx="4"/>
  <g fill="#ffffff">
    <!-- Simplified Q shape for better recognition -->
    <path d="M8 8h16c2.2 0 4 1.8 4 4v8c0 2.2-1.8 4-4 4H8c-2.2 0-4-1.8-4-4V12c0-2.2 1.8-4 4-4zm0 2c-1.1 0-2 .9-2 2v8c0 1.1.9 2 2 2h16c1.1 0 2-.9 2-2V12c0-1.1-.9-2-2-2H8zm6 4c1.1 0 2 .9 2 2s-.9 2-2 2-2-.9-2-2 .9-2 2-2zm0 1c-.6 0-1 .4-1 1s.4 1 1 1 1-.4 1-1-.4-1-1-1z"/>
    <!-- Tail of Q -->
    <path d="M20 20l4 4-1.4 1.4-4-4 1.4-1.4z"/>
  </g>
</svg>
